<?xml version="1.0" standalone="no"?>
<!DOCTYPE svg PUBLIC "-//W3C//DTD SVG 20010904//EN"
 "http://www.w3.org/TR/2001/REC-SVG-20010904/DTD/svg10.dtd">
<svg version="1.0" xmlns="http://www.w3.org/2000/svg"
 width="393.000000pt" height="192.000000pt" viewBox="0 0 393.000000 192.000000"
 preserveAspectRatio="xMidYMid meet">

<g transform="translate(0.000000,192.000000) scale(0.100000,-0.100000)"
fill="#0c1757" stroke="none">
<path d="M42 1848 c-17 -17 -17 -749 0 -766 9 -9 72 -12 223 -12 193 0 213 2
228 18 15 16 17 45 17 200 l0 182 339 0 c281 0 340 -2 344 -14 3 -8 3 -17 0
-20 -4 -3 -142 -6 -308 -6 -280 0 -303 -1 -318 -18 -14 -16 -17 -43 -17 -168
l0 -149 268 -242 267 -243 301 0 c309 0 324 2 324 40 0 9 -88 99 -195 200
l-196 184 63 21 c77 26 109 45 171 104 146 138 163 365 42 548 -41 62 -121
128 -173 143 -56 15 -1364 14 -1380 -2z"/>
<path d="M2182 1848 c-17 -17 -17 -749 0 -766 9 -9 72 -12 223 -12 193 0 213
2 228 18 15 16 17 45 17 200 l0 182 339 0 c281 0 340 -2 344 -14 3 -8 3 -17 0
-20 -4 -3 -142 -6 -308 -6 -280 0 -303 -1 -318 -18 -14 -16 -17 -43 -17 -168
l0 -149 268 -242 267 -243 301 0 c309 0 324 2 324 40 0 9 -88 99 -195 200
l-196 184 63 21 c158 54 260 169 289 328 30 161 -61 363 -199 445 l-47 27
-685 3 c-531 2 -688 0 -698 -10z"/>
<path d="M1883 1401 c-17 -11 -37 -29 -42 -40 -14 -26 -14 -94 0 -108 9 -9 6
-19 -10 -39 -57 -72 6 -164 112 -164 42 0 54 5 83 34 28 28 34 42 34 75 0 30
4 41 15 41 10 0 15 11 15 35 l0 34 -91 3 c-75 2 -94 6 -103 21 -16 25 4 51 42
55 22 2 35 -2 43 -16 10 -17 17 -18 41 -10 35 12 35 20 1 58 -37 41 -94 50
-140 21z m107 -236 c0 -44 -31 -61 -80 -44 -23 9 -30 17 -30 38 0 37 6 41 62
41 l48 0 0 -35z"/>
<path d="M37 444 c-17 -17 -3 -24 48 -24 l55 0 0 -170 c0 -107 4 -170 10 -170
6 0 10 63 10 170 l0 170 61 0 c44 0 60 3 57 13 -5 13 -228 23 -241 11z"/>
<path d="M1554 437 c-2 -7 -3 -88 -2 -180 4 -213 22 -227 26 -20 l3 148 99
-152 c55 -84 104 -153 110 -153 6 0 10 63 10 180 0 225 -18 247 -22 28 l-3
-153 -104 158 c-57 86 -105 157 -108 157 -2 0 -6 -6 -9 -13z"/>
<path d="M2035 434 c-67 -34 -105 -96 -105 -168 0 -76 37 -138 102 -172 35
-18 111 -18 147 1 65 33 107 115 98 191 -13 119 -144 199 -242 148z m155 -40
c43 -37 62 -78 62 -136 -1 -66 -32 -115 -90 -140 -78 -35 -157 -4 -193 76 -24
53 -24 90 2 142 27 57 70 84 136 84 41 0 58 -5 83 -26z"/>
<path d="M2795 434 c-99 -51 -133 -159 -84 -261 38 -79 151 -118 228 -78 97
50 128 183 65 278 -44 67 -143 96 -209 61z m143 -34 c69 -42 94 -144 53 -220
-39 -73 -146 -99 -210 -53 -33 24 -71 98 -71 137 0 44 37 112 73 135 42 27
111 27 155 1z"/>
<path d="M3285 443 c-35 -9 -85 -53 -106 -95 -44 -87 -6 -213 77 -253 78 -37
188 3 220 81 26 63 23 65 -68 62 -99 -4 -108 -22 -13 -26 36 -2 65 -7 65 -12
0 -20 -63 -79 -96 -90 -125 -42 -232 126 -155 244 58 89 188 86 239 -4 18 -31
32 -39 32 -17 0 28 -41 76 -82 96 -43 20 -71 24 -113 14z"/>
<path d="M402 263 l3 -178 98 -3 c77 -2 98 0 95 10 -3 9 -31 14 -86 16 l-82 3
0 69 0 69 83 3 c46 2 82 7 82 13 0 6 -36 11 -82 13 l-83 3 0 69 0 70 85 0 c50
0 85 4 85 10 0 6 -40 10 -100 10 l-100 0 2 -177z"/>
<path d="M830 432 c-41 -19 -71 -48 -90 -86 -86 -178 126 -353 262 -216 21 21
38 45 38 54 0 9 -2 16 -4 16 -2 0 -24 -20 -48 -45 -41 -41 -50 -45 -93 -45
-87 0 -147 60 -148 149 -1 89 59 156 142 156 54 0 95 -22 119 -66 18 -31 32
-38 32 -15 0 21 -47 74 -81 91 -29 15 -102 19 -129 7z"/>
<path d="M1174 427 c-9 -24 1 -337 11 -340 6 -1 11 32 13 81 l3 82 94 0 95 0
0 -85 c0 -50 4 -85 10 -85 6 0 10 67 10 180 0 113 -4 180 -10 180 -6 0 -10
-33 -10 -80 l0 -80 -95 0 -95 0 0 80 c0 48 -4 80 -10 80 -6 0 -13 -6 -16 -13z"/>
<path d="M2410 260 l0 -181 95 3 c119 4 126 22 10 26 l-85 3 0 164 c0 103 -4
165 -10 165 -6 0 -10 -67 -10 -180z"/>
<path d="M3590 430 c0 -5 25 -50 55 -99 52 -86 54 -94 57 -167 2 -51 7 -79 16
-82 9 -3 12 16 12 73 0 77 0 78 60 177 33 54 60 101 60 103 0 3 -6 5 -13 5 -7
0 -36 -41 -65 -91 l-54 -91 -54 91 c-50 82 -74 109 -74 81z"/>
</g>
</svg>
